<?xml version="1.0" encoding="utf-8" standalone="no"?>
<!DOCTYPE svg PUBLIC "-//W3C//DTD SVG 1.1//EN"
  "http://www.w3.org/Graphics/SVG/1.1/DTD/svg11.dtd">
<!-- Created with matplotlib (https://matplotlib.org/) -->
<svg height="288pt" version="1.1" viewBox="0 0 432 288" width="432pt" xmlns="http://www.w3.org/2000/svg" xmlns:xlink="http://www.w3.org/1999/xlink">
 <defs>
  <style type="text/css">
*{stroke-linecap:butt;stroke-linejoin:round;}
  </style>
 </defs>
 <g id="figure_1">
  <g id="patch_1">
   <path d="M 0 288 
L 432 288 
L 432 0 
L 0 0 
z
" style="fill:#ffffff;"/>
  </g>
  <g id="axes_1">
   <g id="patch_2">
    <path d="M 221.4 56.304 
C 202.009377 56.304 183.164721 62.788483 167.879885 74.720377 
C 152.59505 86.652271 141.730763 103.35966 137.024566 122.170507 
C 132.318368 140.981355 134.035278 160.836374 141.900708 178.560124 
C 149.766137 196.283873 163.337164 210.878284 180.443354 220.009249 
L 221.4 143.28 
L 221.4 56.304 
z
" style="fill:#1f77b4;"/>
   </g>
   <g id="patch_3">
    <path d="M 180.443354 220.009249 
C 194.935827 227.745062 211.327692 231.218886 227.712231 230.026644 
C 244.09677 228.834402 259.81307 223.024186 273.032995 213.271845 
C 286.25292 203.519505 296.443209 190.218426 302.418519 174.915804 
C 308.393829 159.613182 309.913129 142.926289 306.799693 126.796159 
L 221.4 143.28 
L 180.443354 220.009249 
z
" style="fill:#ff7f0e;"/>
   </g>
   <g id="patch_4">
    <path d="M 306.799693 126.796159 
C 302.970876 106.959777 292.347851 89.064053 276.767514 76.203455 
C 261.187177 63.342856 241.602489 56.303992 221.399967 56.304 
L 221.4 143.28 
L 306.799693 126.796159 
z
" style="fill:#2ca02c;"/>
   </g>
   <g id="matplotlib.axis_1"/>
   <g id="matplotlib.axis_2"/>
  </g>
 </g>
</svg>
