<?xml version="1.0" encoding="utf-8" standalone="no"?>
<!DOCTYPE svg PUBLIC "-//W3C//DTD SVG 1.1//EN"
  "http://www.w3.org/Graphics/SVG/1.1/DTD/svg11.dtd">
<!-- Created with matplotlib (https://matplotlib.org/) -->
<svg height="288pt" version="1.1" viewBox="0 0 432 288" width="432pt" xmlns="http://www.w3.org/2000/svg" xmlns:xlink="http://www.w3.org/1999/xlink">
 <defs>
  <style type="text/css">
*{stroke-linecap:butt;stroke-linejoin:round;}
  </style>
 </defs>
 <g id="figure_1">
  <g id="patch_1">
   <path d="M 0 288 
L 432 288 
L 432 0 
L 0 0 
z
" style="fill:#ffffff;"/>
  </g>
  <g id="axes_1">
   <g id="patch_2">
    <path d="M 277.307095 76.652519 
C 265.020612 66.342935 250.118563 59.630052 234.255872 57.259356 
C 218.393181 54.888661 202.179623 56.951286 187.415771 63.218169 
C 172.651918 69.485052 159.905306 79.71529 150.59149 92.772778 
C 141.277674 105.830266 135.754685 121.213063 134.635869 137.212858 
C 133.517054 153.212652 136.845421 169.214397 144.251344 183.441044 
C 151.657266 197.66769 162.856055 209.572354 176.604044 217.832981 
C 190.352034 226.093607 206.12074 230.392651 222.158993 230.252688 
C 238.197247 230.112726 253.888524 225.539137 267.490252 217.039835 
L 221.4 143.28 
L 277.307095 76.652519 
z
" style="fill:#c0c0c0;"/>
   </g>
   <g id="patch_3">
    <path d="M 267.490252 217.039835 
C 279.129755 209.766668 288.884057 199.840619 295.952981 188.075956 
C 303.021904 176.311293 307.206719 163.038758 308.164131 149.347142 
C 309.121542 135.655527 306.824635 121.929745 301.461831 109.295771 
C 296.099027 96.661796 287.821093 85.47481 277.307095 76.652519 
L 221.4 143.28 
L 267.490252 217.039835 
z
" style="fill:#fa8072;"/>
   </g>
   <g id="matplotlib.axis_1"/>
   <g id="matplotlib.axis_2"/>
  </g>
 </g>
</svg>
